# xmcd
#
# Track frame offsets: 
#        150
#        18887
#        34990
#        62733
#        83707
#        96369
#        114036
#        136575
#        157442
#        181352
#        200648
#
# Disc length: 2915 seconds
#
# Revision: 0
# Processed by: cddbd v1.5.2PL0 Copyright (c) Steve Scherf et al.
# Submitted via: ExactAudioCopy v1.3
#
DISCID=8e0b610b
DTITLE=Various Artist - Tribute - Delmark's 65th Anniversary
DYEAR=2018
DGENRE=Blues
TTITLE0=Omar Coleman - Train I Ride
TTITLE1=Lurrie Bell and The Bell Dynasty - One Day You're Gonna Get Luck
TTITLE1=y
TTITLE2=Linsey Alexander and Billy Flynn - All For Business
TTITLE3=Demetria Taylor - Riverboat
TTITLE4=Jimmy Burns - She Left Me A Mule To Ride
TTITLE5=Lil' Ed and Dave Weld - Speak My Mind
TTITLE6=Jimmy Johnson and Dave Specter - Out Of Bad Luck
TTITLE7=Corey Dennison and Gerry Hundt - Broke And Hungry
TTITLE8=Mike Wheeler - So Many Roads
TTITLE9=Shirley Johnson - Need Your Love So Bad
TTITLE10=Ken Saydak - Boot That Thing
EXTD=
EXTT0=
EXTT1=
EXTT2=
EXTT3=
EXTT4=
EXTT5=
EXTT6=
EXTT7=
EXTT8=
EXTT9=
EXTT10=
PLAYORDER=
